<svg xmlns="http://www.w3.org/2000/svg" viewBox="0 0 64 64" width="64" height="64"><g id="etc_symbol_base"><g stroke="none"><path d="M10.256 34.174 L10.511 31.260 L10.256 29.862 L12.301 23.451 L14.594 23.209 L15.352 21.346 L18.175 19.612 L18.510 19.618 L19.176 15.550 L18.983 12.784 L22.228 3.000 L41.772 3.000 L45.017 12.784 L44.824 15.550 L45.490 19.618 L45.825 19.612 L48.648 21.346 L49.406 23.209 L51.699 23.451 L53.744 29.862 L53.489 31.260 L53.744 34.174 L51.699 40.585 L49.406 40.827 L48.648 42.690 L47.428 43.439 L47.232 49.061 L41.277 55.016 L41.277 55.261 L22.723 55.261 L22.723 55.016 L16.768 49.061 L16.572 43.439 L15.352 42.690 L14.594 40.827 L12.301 40.585 Z" fill="#2A2A2E" fill-rule="evenodd"/></g></g><g id="etc_symbol_outline"><g fill="none" stroke="#FFFFFF" stroke-linejoin="round" stroke-linecap="round"><path d="M18.983 12.784 L22.228 3.000 L41.772 3.000 L45.017 12.784 L44.824 15.550 L46.058 23.080 L46.870 23.312 L47.540 27.178 L47.376 29.954 L47.596 38.637 L47.232 49.061 L41.277 55.016 L41.277 55.261 L22.723 55.261 L22.723 55.016 L16.768 49.061 L16.404 38.637 L16.624 29.954 L16.460 27.178 L17.130 23.312 L17.942 23.080 L19.176 15.550 ZM16.991 24.322 L16.460 27.178 L16.624 29.954 L16.434 39.485 L11.711 38.568 L10.352 32.020 L11.706 25.432 ZM52.294 25.432 L53.648 32.020 L52.289 38.568 L47.566 39.485 L47.376 29.954 L47.540 27.178 L47.009 24.322 Z" stroke-width="1.2000000000000002"/><path d="M10.256 34.174 L10.511 31.260 L10.256 29.862 L12.301 23.451 L14.594 23.209 L15.352 21.346 L18.175 19.612 L18.510 19.618 L19.176 15.550 L18.983 12.784 L22.228 3.000 L41.772 3.000 L45.017 12.784 L44.824 15.550 L45.490 19.618 L45.825 19.612 L48.648 21.346 L49.406 23.209 L51.699 23.451 L53.744 29.862 L53.489 31.260 L53.744 34.174 L51.699 40.585 L49.406 40.827 L48.648 42.690 L47.428 43.439 L47.232 49.061 L41.277 55.016 L41.277 55.261 L22.723 55.261 L22.723 55.016 L16.768 49.061 L16.572 43.439 L15.352 42.690 L14.594 40.827 L12.301 40.585 Z" stroke-width="1.5"/></g></g></svg>