<svg xmlns="http://www.w3.org/2000/svg" viewBox="0 0 64 64" width="64" height="64"><g id="etc_symbol_base0"><ellipse cx="14.31" cy="32.00" rx="2.62" ry="2.62" fill="#2A2A2E"/><ellipse cx="17.33" cy="37.11" rx="2.62" ry="2.62" fill="#2A2A2E"/><ellipse cx="17.33" cy="26.89" rx="2.62" ry="2.62" fill="#2A2A2E"/><ellipse cx="20.21" cy="42.22" rx="2.62" ry="2.62" fill="#2A2A2E"/><ellipse cx="20.21" cy="32.00" rx="2.62" ry="2.62" fill="#2A2A2E"/><ellipse cx="20.21" cy="21.78" rx="2.62" ry="2.62" fill="#2A2A2E"/><ellipse cx="23.22" cy="47.33" rx="2.62" ry="2.62" fill="#2A2A2E"/><ellipse cx="23.22" cy="37.11" rx="2.62" ry="2.62" fill="#2A2A2E"/><ellipse cx="23.22" cy="26.89" rx="2.62" ry="2.62" fill="#2A2A2E"/><ellipse cx="23.22" cy="16.67" rx="2.62" ry="2.62" fill="#2A2A2E"/><ellipse cx="26.10" cy="42.22" rx="2.62" ry="2.62" fill="#2A2A2E"/><ellipse cx="26.10" cy="32.00" rx="2.62" ry="2.62" fill="#2A2A2E"/><ellipse cx="26.10" cy="21.78" rx="2.62" ry="2.62" fill="#2A2A2E"/><ellipse cx="29.12" cy="47.33" rx="2.62" ry="2.62" fill="#2A2A2E"/><ellipse cx="29.12" cy="37.11" rx="2.62" ry="2.62" fill="#2A2A2E"/><ellipse cx="29.12" cy="26.89" rx="2.62" ry="2.62" fill="#2A2A2E"/><ellipse cx="29.12" cy="16.67" rx="2.62" ry="2.62" fill="#2A2A2E"/><ellipse cx="32.00" cy="42.22" rx="2.62" ry="2.62" fill="#2A2A2E"/><ellipse cx="32.00" cy="32.00" rx="2.62" ry="2.62" fill="#2A2A2E"/><ellipse cx="32.00" cy="21.78" rx="2.62" ry="2.62" fill="#2A2A2E"/><ellipse cx="34.88" cy="47.33" rx="2.62" ry="2.62" fill="#2A2A2E"/><ellipse cx="34.88" cy="37.11" rx="2.62" ry="2.62" fill="#2A2A2E"/><ellipse cx="34.88" cy="26.89" rx="2.62" ry="2.62" fill="#2A2A2E"/><ellipse cx="34.88" cy="16.67" rx="2.62" ry="2.62" fill="#2A2A2E"/><ellipse cx="37.90" cy="42.22" rx="2.62" ry="2.62" fill="#2A2A2E"/><ellipse cx="37.90" cy="32.00" rx="2.62" ry="2.62" fill="#2A2A2E"/><ellipse cx="37.90" cy="21.78" rx="2.62" ry="2.62" fill="#2A2A2E"/><ellipse cx="40.78" cy="47.33" rx="2.62" ry="2.62" fill="#2A2A2E"/><ellipse cx="40.78" cy="37.11" rx="2.62" ry="2.62" fill="#2A2A2E"/><ellipse cx="40.78" cy="26.89" rx="2.62" ry="2.62" fill="#2A2A2E"/><ellipse cx="40.78" cy="16.67" rx="2.62" ry="2.62" fill="#2A2A2E"/><ellipse cx="43.79" cy="42.22" rx="2.62" ry="2.62" fill="#2A2A2E"/><ellipse cx="43.79" cy="32.00" rx="2.62" ry="2.62" fill="#2A2A2E"/><ellipse cx="43.79" cy="21.78" rx="2.62" ry="2.62" fill="#2A2A2E"/><ellipse cx="46.67" cy="37.11" rx="2.62" ry="2.62" fill="#2A2A2E"/><ellipse cx="46.67" cy="26.89" rx="2.62" ry="2.62" fill="#2A2A2E"/><ellipse cx="49.69" cy="32.00" rx="2.62" ry="2.62" fill="#2A2A2E"/></g><g id="etc_symbol_outline"><ellipse cx="14.31" cy="32.00" rx="2.62" ry="2.62" fill="none" stroke="#FFFFFF" stroke-width="0.90"/><ellipse cx="17.33" cy="37.11" rx="2.62" ry="2.62" fill="none" stroke="#FFFFFF" stroke-width="0.90"/><ellipse cx="17.33" cy="26.89" rx="2.62" ry="2.62" fill="none" stroke="#FFFFFF" stroke-width="0.90"/><ellipse cx="20.21" cy="42.22" rx="2.62" ry="2.62" fill="none" stroke="#FFFFFF" stroke-width="0.90"/><ellipse cx="20.21" cy="32.00" rx="2.62" ry="2.62" fill="none" stroke="#FFFFFF" stroke-width="0.90"/><ellipse cx="20.21" cy="21.78" rx="2.62" ry="2.62" fill="none" stroke="#FFFFFF" stroke-width="0.90"/><ellipse cx="23.22" cy="47.33" rx="2.62" ry="2.62" fill="none" stroke="#FFFFFF" stroke-width="0.90"/><ellipse cx="23.22" cy="37.11" rx="2.62" ry="2.62" fill="none" stroke="#FFFFFF" stroke-width="0.90"/><ellipse cx="23.22" cy="26.89" rx="2.62" ry="2.62" fill="none" stroke="#FFFFFF" stroke-width="0.90"/><ellipse cx="23.22" cy="16.67" rx="2.62" ry="2.62" fill="none" stroke="#FFFFFF" stroke-width="0.90"/><ellipse cx="26.10" cy="42.22" rx="2.62" ry="2.62" fill="none" stroke="#FFFFFF" stroke-width="0.90"/><ellipse cx="26.10" cy="32.00" rx="2.62" ry="2.62" fill="none" stroke="#FFFFFF" stroke-width="0.90"/><ellipse cx="26.10" cy="21.78" rx="2.62" ry="2.62" fill="none" stroke="#FFFFFF" stroke-width="0.90"/><ellipse cx="29.12" cy="47.33" rx="2.62" ry="2.62" fill="none" stroke="#FFFFFF" stroke-width="0.90"/><ellipse cx="29.12" cy="37.11" rx="2.62" ry="2.62" fill="none" stroke="#FFFFFF" stroke-width="0.90"/><ellipse cx="29.12" cy="26.89" rx="2.62" ry="2.62" fill="none" stroke="#FFFFFF" stroke-width="0.90"/><ellipse cx="29.12" cy="16.67" rx="2.62" ry="2.62" fill="none" stroke="#FFFFFF" stroke-width="0.90"/><ellipse cx="32.00" cy="42.22" rx="2.62" ry="2.62" fill="none" stroke="#FFFFFF" stroke-width="0.90"/><ellipse cx="32.00" cy="32.00" rx="2.62" ry="2.62" fill="none" stroke="#FFFFFF" stroke-width="0.90"/><ellipse cx="32.00" cy="21.78" rx="2.62" ry="2.62" fill="none" stroke="#FFFFFF" stroke-width="0.90"/><ellipse cx="34.88" cy="47.33" rx="2.62" ry="2.62" fill="none" stroke="#FFFFFF" stroke-width="0.90"/><ellipse cx="34.88" cy="37.11" rx="2.62" ry="2.62" fill="none" stroke="#FFFFFF" stroke-width="0.90"/><ellipse cx="34.88" cy="26.89" rx="2.62" ry="2.62" fill="none" stroke="#FFFFFF" stroke-width="0.90"/><ellipse cx="34.88" cy="16.67" rx="2.62" ry="2.62" fill="none" stroke="#FFFFFF" stroke-width="0.90"/><ellipse cx="37.90" cy="42.22" rx="2.62" ry="2.62" fill="none" stroke="#FFFFFF" stroke-width="0.90"/><ellipse cx="37.90" cy="32.00" rx="2.62" ry="2.62" fill="none" stroke="#FFFFFF" stroke-width="0.90"/><ellipse cx="37.90" cy="21.78" rx="2.62" ry="2.62" fill="none" stroke="#FFFFFF" stroke-width="0.90"/><ellipse cx="40.78" cy="47.33" rx="2.62" ry="2.62" fill="none" stroke="#FFFFFF" stroke-width="0.90"/><ellipse cx="40.78" cy="37.11" rx="2.62" ry="2.62" fill="none" stroke="#FFFFFF" stroke-width="0.90"/><ellipse cx="40.78" cy="26.89" rx="2.62" ry="2.62" fill="none" stroke="#FFFFFF" stroke-width="0.90"/><ellipse cx="40.78" cy="16.67" rx="2.62" ry="2.62" fill="none" stroke="#FFFFFF" stroke-width="0.90"/><ellipse cx="43.79" cy="42.22" rx="2.62" ry="2.62" fill="none" stroke="#FFFFFF" stroke-width="0.90"/><ellipse cx="43.79" cy="32.00" rx="2.62" ry="2.62" fill="none" stroke="#FFFFFF" stroke-width="0.90"/><ellipse cx="43.79" cy="21.78" rx="2.62" ry="2.62" fill="none" stroke="#FFFFFF" stroke-width="0.90"/><ellipse cx="46.67" cy="37.11" rx="2.62" ry="2.62" fill="none" stroke="#FFFFFF" stroke-width="0.90"/><ellipse cx="46.67" cy="26.89" rx="2.62" ry="2.62" fill="none" stroke="#FFFFFF" stroke-width="0.90"/><ellipse cx="49.69" cy="32.00" rx="2.62" ry="2.62" fill="none" stroke="#FFFFFF" stroke-width="0.90"/></g></svg>