<svg xmlns="http://www.w3.org/2000/svg" viewBox="0 0 64 64" width="64" height="64"><g id="etc_symbol_base0"><g stroke="none"><path d="M12.469 24.237 L18.749 23.727 L20.254 21.150 L21.300 11.400 L23.246 8.016 L23.596 7.928 L23.243 7.840 L23.542 3.000 L40.458 3.000 L40.757 7.840 L40.404 7.928 L40.754 8.016 L42.700 11.400 L43.746 21.150 L45.251 23.727 L51.531 24.237 L52.016 31.374 L53.858 31.924 L54.880 37.260 L54.050 42.389 L52.018 43.112 L51.372 50.292 L47.347 50.674 L47.166 52.520 L44.499 55.429 L42.359 57.120 L44.271 58.837 L38.148 60.494 L33.125 61.000 L25.852 60.494 L19.729 58.837 L21.641 57.120 L19.501 55.429 L16.834 52.520 L16.653 50.674 L12.628 50.292 L11.982 43.112 L9.950 42.389 L9.120 37.260 L10.142 31.924 L11.984 31.374 Z" fill="#2A2A2E" fill-rule="evenodd"/></g></g><g id="etc_symbol_outline"><g fill="none" stroke="#FFFFFF" stroke-linejoin="round" stroke-linecap="round"><path d="M15.544 42.846 L15.544 31.266 L16.072 31.339 L16.072 29.967 L16.426 29.935 L17.070 26.604 L20.254 21.150 L21.300 11.400 L23.230 8.043 L23.542 3.000 L40.458 3.000 L40.770 8.043 L42.700 11.400 L43.746 21.150 L46.930 26.604 L47.574 29.935 L47.928 29.967 L47.928 31.339 L48.456 31.266 L48.456 42.846 L47.928 42.782 L47.928 44.110 L47.619 44.249 L47.166 52.520 L44.499 55.429 L42.359 57.120 L44.271 58.837 L38.148 60.494 L30.875 61.000 L25.852 60.494 L19.729 58.837 L21.641 57.120 L19.501 55.429 L16.834 52.520 L16.381 44.249 L16.072 44.110 L16.072 42.782 ZM48.259 42.828 L47.928 42.850 L48.456 42.756 L48.456 31.266 L48.256 31.294 L48.193 30.417 L48.816 30.419 L53.858 31.924 L54.880 37.260 L54.050 42.389 L53.790 42.618 L49.439 43.982 L48.259 43.672 ZM14.561 43.982 L9.950 42.389 L9.120 37.260 L10.142 31.924 L15.807 30.417 L15.744 31.294 L15.544 31.266 L15.544 42.756 L16.072 42.850 L15.741 42.828 L15.741 43.672 Z" stroke-width="1.2000000000000002"/><path d="M12.469 24.237 L18.749 23.727 L20.254 21.150 L21.300 11.400 L23.246 8.016 L23.596 7.928 L23.243 7.840 L23.542 3.000 L40.458 3.000 L40.757 7.840 L40.404 7.928 L40.754 8.016 L42.700 11.400 L43.746 21.150 L45.251 23.727 L51.531 24.237 L52.016 31.374 L53.858 31.924 L54.880 37.260 L54.050 42.389 L52.018 43.112 L51.372 50.292 L47.347 50.674 L47.166 52.520 L44.499 55.429 L42.359 57.120 L44.271 58.837 L38.148 60.494 L33.125 61.000 L25.852 60.494 L19.729 58.837 L21.641 57.120 L19.501 55.429 L16.834 52.520 L16.653 50.674 L12.628 50.292 L11.982 43.112 L9.950 42.389 L9.120 37.260 L10.142 31.924 L11.984 31.374 Z" stroke-width="1.5"/></g></g></svg>