<svg xmlns="http://www.w3.org/2000/svg" viewBox="0 0 64 64" width="64" height="64"><g id="etc_symbol_base0"><ellipse cx="16.42" cy="34.47" rx="2.29" ry="2.29" fill="#2A2A2E"/><ellipse cx="16.42" cy="29.53" rx="2.29" ry="2.29" fill="#2A2A2E"/><ellipse cx="17.95" cy="39.16" rx="2.29" ry="2.29" fill="#2A2A2E"/><ellipse cx="17.95" cy="24.84" rx="2.29" ry="2.29" fill="#2A2A2E"/><ellipse cx="20.43" cy="32.00" rx="2.29" ry="2.29" fill="#2A2A2E"/><ellipse cx="20.85" cy="43.15" rx="2.29" ry="2.29" fill="#2A2A2E"/><ellipse cx="20.85" cy="20.85" rx="2.29" ry="2.29" fill="#2A2A2E"/><ellipse cx="21.31" cy="36.43" rx="2.29" ry="2.29" fill="#2A2A2E"/><ellipse cx="21.31" cy="27.57" rx="2.29" ry="2.29" fill="#2A2A2E"/><ellipse cx="23.82" cy="40.18" rx="2.29" ry="2.29" fill="#2A2A2E"/><ellipse cx="23.82" cy="23.82" rx="2.29" ry="2.29" fill="#2A2A2E"/><ellipse cx="24.62" cy="32.00" rx="2.29" ry="2.29" fill="#2A2A2E"/><ellipse cx="24.84" cy="46.05" rx="2.29" ry="2.29" fill="#2A2A2E"/><ellipse cx="24.84" cy="17.95" rx="2.29" ry="2.29" fill="#2A2A2E"/><ellipse cx="26.03" cy="36.34" rx="2.29" ry="2.29" fill="#2A2A2E"/><ellipse cx="26.03" cy="27.66" rx="2.29" ry="2.29" fill="#2A2A2E"/><ellipse cx="27.57" cy="42.69" rx="2.29" ry="2.29" fill="#2A2A2E"/><ellipse cx="27.57" cy="21.31" rx="2.29" ry="2.29" fill="#2A2A2E"/><ellipse cx="28.82" cy="32.00" rx="2.29" ry="2.29" fill="#2A2A2E"/><ellipse cx="29.53" cy="47.58" rx="2.29" ry="2.29" fill="#2A2A2E"/><ellipse cx="29.53" cy="16.42" rx="2.29" ry="2.29" fill="#2A2A2E"/><ellipse cx="29.72" cy="39.02" rx="2.29" ry="2.29" fill="#2A2A2E"/><ellipse cx="29.72" cy="24.98" rx="2.29" ry="2.29" fill="#2A2A2E"/><ellipse cx="32.00" cy="43.57" rx="2.29" ry="2.29" fill="#2A2A2E"/><ellipse cx="32.00" cy="35.18" rx="2.29" ry="2.29" fill="#2A2A2E"/><ellipse cx="32.00" cy="32.00" rx="2.29" ry="2.29" fill="#2A2A2E"/><ellipse cx="32.00" cy="28.82" rx="2.29" ry="2.29" fill="#2A2A2E"/><ellipse cx="32.00" cy="20.43" rx="2.29" ry="2.29" fill="#2A2A2E"/><ellipse cx="34.28" cy="39.02" rx="2.29" ry="2.29" fill="#2A2A2E"/><ellipse cx="34.28" cy="24.98" rx="2.29" ry="2.29" fill="#2A2A2E"/><ellipse cx="34.47" cy="47.58" rx="2.29" ry="2.29" fill="#2A2A2E"/><ellipse cx="34.47" cy="16.42" rx="2.29" ry="2.29" fill="#2A2A2E"/><ellipse cx="35.18" cy="32.00" rx="2.29" ry="2.29" fill="#2A2A2E"/><ellipse cx="36.43" cy="42.69" rx="2.29" ry="2.29" fill="#2A2A2E"/><ellipse cx="36.43" cy="21.31" rx="2.29" ry="2.29" fill="#2A2A2E"/><ellipse cx="37.97" cy="36.34" rx="2.29" ry="2.29" fill="#2A2A2E"/><ellipse cx="37.97" cy="27.66" rx="2.29" ry="2.29" fill="#2A2A2E"/><ellipse cx="39.16" cy="46.05" rx="2.29" ry="2.29" fill="#2A2A2E"/><ellipse cx="39.16" cy="17.95" rx="2.29" ry="2.29" fill="#2A2A2E"/><ellipse cx="39.38" cy="32.00" rx="2.29" ry="2.29" fill="#2A2A2E"/><ellipse cx="40.18" cy="40.18" rx="2.29" ry="2.29" fill="#2A2A2E"/><ellipse cx="40.18" cy="23.82" rx="2.29" ry="2.29" fill="#2A2A2E"/><ellipse cx="42.69" cy="36.43" rx="2.29" ry="2.29" fill="#2A2A2E"/><ellipse cx="42.69" cy="27.57" rx="2.29" ry="2.29" fill="#2A2A2E"/><ellipse cx="43.15" cy="43.15" rx="2.29" ry="2.29" fill="#2A2A2E"/><ellipse cx="43.15" cy="20.85" rx="2.29" ry="2.29" fill="#2A2A2E"/><ellipse cx="43.57" cy="32.00" rx="2.29" ry="2.29" fill="#2A2A2E"/><ellipse cx="46.05" cy="39.16" rx="2.29" ry="2.29" fill="#2A2A2E"/><ellipse cx="46.05" cy="24.84" rx="2.29" ry="2.29" fill="#2A2A2E"/><ellipse cx="47.58" cy="34.47" rx="2.29" ry="2.29" fill="#2A2A2E"/><ellipse cx="47.58" cy="29.53" rx="2.29" ry="2.29" fill="#2A2A2E"/></g><g id="etc_symbol_outline"><ellipse cx="16.42" cy="34.47" rx="2.29" ry="2.29" fill="none" stroke="#FFFFFF" stroke-width="0.90"/><ellipse cx="16.42" cy="29.53" rx="2.29" ry="2.29" fill="none" stroke="#FFFFFF" stroke-width="0.90"/><ellipse cx="17.95" cy="39.16" rx="2.29" ry="2.29" fill="none" stroke="#FFFFFF" stroke-width="0.90"/><ellipse cx="17.95" cy="24.84" rx="2.29" ry="2.29" fill="none" stroke="#FFFFFF" stroke-width="0.90"/><ellipse cx="20.43" cy="32.00" rx="2.29" ry="2.29" fill="none" stroke="#FFFFFF" stroke-width="0.90"/><ellipse cx="20.85" cy="43.15" rx="2.29" ry="2.29" fill="none" stroke="#FFFFFF" stroke-width="0.90"/><ellipse cx="20.85" cy="20.85" rx="2.29" ry="2.29" fill="none" stroke="#FFFFFF" stroke-width="0.90"/><ellipse cx="21.31" cy="36.43" rx="2.29" ry="2.29" fill="none" stroke="#FFFFFF" stroke-width="0.90"/><ellipse cx="21.31" cy="27.57" rx="2.29" ry="2.29" fill="none" stroke="#FFFFFF" stroke-width="0.90"/><ellipse cx="23.82" cy="40.18" rx="2.29" ry="2.29" fill="none" stroke="#FFFFFF" stroke-width="0.90"/><ellipse cx="23.82" cy="23.82" rx="2.29" ry="2.29" fill="none" stroke="#FFFFFF" stroke-width="0.90"/><ellipse cx="24.62" cy="32.00" rx="2.29" ry="2.29" fill="none" stroke="#FFFFFF" stroke-width="0.90"/><ellipse cx="24.84" cy="46.05" rx="2.29" ry="2.29" fill="none" stroke="#FFFFFF" stroke-width="0.90"/><ellipse cx="24.84" cy="17.95" rx="2.29" ry="2.29" fill="none" stroke="#FFFFFF" stroke-width="0.90"/><ellipse cx="26.03" cy="36.34" rx="2.29" ry="2.29" fill="none" stroke="#FFFFFF" stroke-width="0.90"/><ellipse cx="26.03" cy="27.66" rx="2.29" ry="2.29" fill="none" stroke="#FFFFFF" stroke-width="0.90"/><ellipse cx="27.57" cy="42.69" rx="2.29" ry="2.29" fill="none" stroke="#FFFFFF" stroke-width="0.90"/><ellipse cx="27.57" cy="21.31" rx="2.29" ry="2.29" fill="none" stroke="#FFFFFF" stroke-width="0.90"/><ellipse cx="28.82" cy="32.00" rx="2.29" ry="2.29" fill="none" stroke="#FFFFFF" stroke-width="0.90"/><ellipse cx="29.53" cy="47.58" rx="2.29" ry="2.29" fill="none" stroke="#FFFFFF" stroke-width="0.90"/><ellipse cx="29.53" cy="16.42" rx="2.29" ry="2.29" fill="none" stroke="#FFFFFF" stroke-width="0.90"/><ellipse cx="29.72" cy="39.02" rx="2.29" ry="2.29" fill="none" stroke="#FFFFFF" stroke-width="0.90"/><ellipse cx="29.72" cy="24.98" rx="2.29" ry="2.29" fill="none" stroke="#FFFFFF" stroke-width="0.90"/><ellipse cx="32.00" cy="43.57" rx="2.29" ry="2.29" fill="none" stroke="#FFFFFF" stroke-width="0.90"/><ellipse cx="32.00" cy="35.18" rx="2.29" ry="2.29" fill="none" stroke="#FFFFFF" stroke-width="0.90"/><ellipse cx="32.00" cy="32.00" rx="2.29" ry="2.29" fill="none" stroke="#FFFFFF" stroke-width="0.90"/><ellipse cx="32.00" cy="28.82" rx="2.29" ry="2.29" fill="none" stroke="#FFFFFF" stroke-width="0.90"/><ellipse cx="32.00" cy="20.43" rx="2.29" ry="2.29" fill="none" stroke="#FFFFFF" stroke-width="0.90"/><ellipse cx="34.28" cy="39.02" rx="2.29" ry="2.29" fill="none" stroke="#FFFFFF" stroke-width="0.90"/><ellipse cx="34.28" cy="24.98" rx="2.29" ry="2.29" fill="none" stroke="#FFFFFF" stroke-width="0.90"/><ellipse cx="34.47" cy="47.58" rx="2.29" ry="2.29" fill="none" stroke="#FFFFFF" stroke-width="0.90"/><ellipse cx="34.47" cy="16.42" rx="2.29" ry="2.29" fill="none" stroke="#FFFFFF" stroke-width="0.90"/><ellipse cx="35.18" cy="32.00" rx="2.29" ry="2.29" fill="none" stroke="#FFFFFF" stroke-width="0.90"/><ellipse cx="36.43" cy="42.69" rx="2.29" ry="2.29" fill="none" stroke="#FFFFFF" stroke-width="0.90"/><ellipse cx="36.43" cy="21.31" rx="2.29" ry="2.29" fill="none" stroke="#FFFFFF" stroke-width="0.90"/><ellipse cx="37.97" cy="36.34" rx="2.29" ry="2.29" fill="none" stroke="#FFFFFF" stroke-width="0.90"/><ellipse cx="37.97" cy="27.66" rx="2.29" ry="2.29" fill="none" stroke="#FFFFFF" stroke-width="0.90"/><ellipse cx="39.16" cy="46.05" rx="2.29" ry="2.29" fill="none" stroke="#FFFFFF" stroke-width="0.90"/><ellipse cx="39.16" cy="17.95" rx="2.29" ry="2.29" fill="none" stroke="#FFFFFF" stroke-width="0.90"/><ellipse cx="39.38" cy="32.00" rx="2.29" ry="2.29" fill="none" stroke="#FFFFFF" stroke-width="0.90"/><ellipse cx="40.18" cy="40.18" rx="2.29" ry="2.29" fill="none" stroke="#FFFFFF" stroke-width="0.90"/><ellipse cx="40.18" cy="23.82" rx="2.29" ry="2.29" fill="none" stroke="#FFFFFF" stroke-width="0.90"/><ellipse cx="42.69" cy="36.43" rx="2.29" ry="2.29" fill="none" stroke="#FFFFFF" stroke-width="0.90"/><ellipse cx="42.69" cy="27.57" rx="2.29" ry="2.29" fill="none" stroke="#FFFFFF" stroke-width="0.90"/><ellipse cx="43.15" cy="43.15" rx="2.29" ry="2.29" fill="none" stroke="#FFFFFF" stroke-width="0.90"/><ellipse cx="43.15" cy="20.85" rx="2.29" ry="2.29" fill="none" stroke="#FFFFFF" stroke-width="0.90"/><ellipse cx="43.57" cy="32.00" rx="2.29" ry="2.29" fill="none" stroke="#FFFFFF" stroke-width="0.90"/><ellipse cx="46.05" cy="39.16" rx="2.29" ry="2.29" fill="none" stroke="#FFFFFF" stroke-width="0.90"/><ellipse cx="46.05" cy="24.84" rx="2.29" ry="2.29" fill="none" stroke="#FFFFFF" stroke-width="0.90"/><ellipse cx="47.58" cy="34.47" rx="2.29" ry="2.29" fill="none" stroke="#FFFFFF" stroke-width="0.90"/><ellipse cx="47.58" cy="29.53" rx="2.29" ry="2.29" fill="none" stroke="#FFFFFF" stroke-width="0.90"/></g></svg>